<svg xmlns="http://www.w3.org/2000/svg" data-name="1" viewBox="0 0 128 128" id="Ex"><path d="M126 16H2a2 2 0 0 0-2 2v92a2 2 0 0 0 2 2h124a2 2 0 0 0 2-2V18a2 2 0 0 0-2-2Zm-2 92H4V20h120Z" fill="#34a853" class="color000000 svgShape"></path><path d="M68.66 86.49a2 2 0 0 0 2.83-.15L88 68l16.51 18.35a2 2 0 0 0 3-2.68L90.69 65l16.8-18.66a2 2 0 1 0-3-2.68L88 62 71.49 43.66a2 2 0 0 0-3 2.68L85.31 65l-16.8 18.66a2 2 0 0 0 .15 2.83zM26 87h32a2 2 0 0 0 0-4H28V67h25a2 2 0 0 0 0-4H28V47h30a2 2 0 0 0 0-4H26a2 2 0 0 0-2 2v40a2 2 0 0 0 2 2z" fill="#34a853" class="color000000 svgShape"></path></svg>