<svg xmlns="http://www.w3.org/2000/svg" xmlns:xlink="http://www.w3.org/1999/xlink" viewBox="0 0 64 64" id="Homework"><defs><linearGradient id="a" x1="16" x2="16" y1="63.618" y2="-.694" gradientUnits="userSpaceOnUse"><stop offset="0" stop-color="#919191" class="stopColore93e3a svgShape"></stop><stop offset=".35" stop-color="#949494" class="stopColored683c svgShape"></stop><stop offset=".7" stop-color="#999999" class="stopColorf3903f svgShape"></stop><stop offset="1" stop-color="#848484" class="stopColorfdc70c svgShape"></stop></linearGradient><linearGradient id="b" x1="42" x2="42" y1="63.618" y2="-.694" xlink:href="#a"></linearGradient><linearGradient id="c" x1="32.001" x2="32.001" y1="63.618" y2="-.694" xlink:href="#a"></linearGradient></defs><g data-name="Homework-Book-Pencil Case-Study-Education" fill="#030303" class="color000000 svgShape"><rect width="16" height="2" x="8" y="20" fill="url(#a)"></rect><rect width="16" height="2" x="34" y="8" fill="url(#b)"></rect><rect width="16" height="2" x="34" y="12" fill="url(#b)"></rect><rect width="16" height="2" x="8" y="24" fill="url(#a)"></rect><rect width="16" height="2" x="8" y="28" fill="url(#a)"></rect><rect width="16" height="2" x="8" y="32" fill="url(#a)"></rect><path fill="url(#a)" d="M23,8H9A1,1,0,0,0,8,9v8a1,1,0,0,0,1,1H23a1,1,0,0,0,1-1V9A1,1,0,0,0,23,8Zm-1,8H10V10H22Z"></path><path fill="url(#c)" d="M61.73,31.32A1.007,1.007,0,0,0,61,31H58V26a.978.978,0,0,0-.09-.41L56,21.29V3a1,1,0,0,0-1-1H35a6.986,6.986,0,0,0-6,3.41A6.986,6.986,0,0,0,23,2H3A1,1,0,0,0,2,3V45a1,1,0,0,0,1,1H33l1,14.07A1.011,1.011,0,0,0,35,61H59a1.011,1.011,0,0,0,1-.93l2-28A.985.985,0,0,0,61.73,31.32ZM4,44V40H23a5.009,5.009,0,0,1,4.9,4Zm24-3.89A6.97,6.97,0,0,0,23,38H4V4H23a5,5,0,0,1,5,5ZM56,27v4H54V27Zm-.54-2H50.54l.89-2h3.14ZM52,27v4H50V27Zm.32-6L53,19.46,53.68,21ZM30.1,44a4.925,4.925,0,0,1,1.37-2.54,4.981,4.981,0,0,1,1.14-.85L32.85,44ZM33,31a1.007,1.007,0,0,0-.73.32.985.985,0,0,0-.27.75l.46,6.41a6.943,6.943,0,0,0-2.4,1.57l-.06.06V9a5,5,0,0,1,5-5H54V16.79l-.09-.2a1,1,0,0,0-1.82,0l-4,9A.978.978,0,0,0,48,26v5H46V17a1,1,0,0,0-1-1H37a1,1,0,0,0-1,1V31Zm11-9v2H42v2h2v2H42v2h2v1H38V18h6v2H40v2ZM58.07,59H35.93L34.07,33H59.93Z"></path></g></svg>